<?xml version="1.0" encoding="utf-8"?>
<!-- Generator: Adobe Illustrator 24.2.1, SVG Export Plug-In . SVG Version: 6.00 Build 0)  -->
<svg version="1.1" id="Layer_1" xmlns="http://www.w3.org/2000/svg" xmlns:xlink="http://www.w3.org/1999/xlink" x="0px" y="0px"
	 viewBox="0 0 512 512" style="enable-background:new 0 0 512 512;" xml:space="preserve">
<g>
	<path d="M177.4,135.5c5.2-13.9,14.1-24,28.6-27.8c4.8-1.3,9.8-1.7,14.8-1.7c57.2-0.1,114.4-0.1,171.7-0.1c2.3,0,4.6,0,7.3,0
		c0.1-2.1,0.3-3.7,0.3-5.4c0-9.4,0.1-18.8,0-28.2c-0.1-5.1,1-9.7,6.1-12c5-2.3,9.7-1.4,14.1,1.8c7.8,5.6,15.6,11.2,23.3,16.9
		c26.4,19.1,52.9,38.2,79.3,57.3c9.3,6.7,9.3,15.3,0.1,22c-19.7,14.3-39.4,28.7-59.3,42.8c-3.6,2.5-4.7,5.2-4.7,9.5
		c0.1,68.9,0.1,137.9,0.1,206.8c0,23.3-14.3,41.9-36.3,47.2c-4.6,1.1-9.5,1.5-14.3,1.5c-119.6,0.1-239.3,0.1-358.9,0
		C24,466,5,451.5,0,428.2c-0.8-3.7-1-7.6-1-11.4C-1.1,339.4-1.1,262-1,184.6c0-25.6,15.9-44.6,40.1-48.6c3.4-0.6,6.9-0.5,10.3-0.5
		c40.5,0,81,0,121.5,0C173.1,135.5,175.2,135.5,177.4,135.5z M280.4,316.6c-9.8,8.9-18.8,17.6-28.3,25.6c-3.7,3.2-8.2,5.9-12.8,7.4
		c-13.3,4.3-24.9,0.2-35-8.8c-8.8-7.9-17.6-16-26.6-24.2c-45.6,41.6-90.8,83-136.8,125c125.8,0,250.3,0,376.3,0
		C371,399.4,325.9,358.2,280.4,316.6z M40.5,159.5c1.4,1.6,1.9,2.2,2.4,2.7c58.8,53.8,117.6,107.6,176.4,161.4
		c6.7,6.2,12.2,6,19.2-0.4c48-43.7,95.9-87.5,143.8-131.3c0.9-0.8,1.5-1.8,2.7-3.3c-3,0-5.1,0-7.2,0c-53.2,0-106.4,0.1-159.6,0
		c-17.8,0-30.8-8.5-38.5-24.5c-1.9-3.9-3.8-5.2-8.1-5.2C130.8,159.1,89.9,159,49,159C46.5,159,44.1,159.3,40.5,159.5z M160,300.7
		C114.5,259.1,69.5,218,23.2,175.8c0,83.8,0,166.1,0,249.8C69.3,383.5,114.3,342.3,160,300.7z M298,300.7
		c45.6,41.7,90.7,82.8,135.7,123.9c0.4-0.3,0.9-0.6,1.3-0.9c0-66.9,0-133.7,0-201.5c-5.9,4.1-11.1,8-16.5,11.5
		c-8.6,5.5-18,0.4-18.3-9.8c-0.2-4.9,0-9.8,0-16.4C365.6,239,332.1,269.6,298,300.7z M423.6,93.5c0,7.6,0,13.8,0,20.1
		c0,12.4-3.7,16-16.2,16c-61.8,0-123.7,0-185.5,0c-2.1,0-4.2-0.1-6.3,0.1c-8.7,0.6-15.4,7.5-15.9,16.1c-0.5,9.1,5.2,17,13.8,18.6
		c3,0.6,6.1,0.6,9.2,0.6c62,0,124,0,186.1,0c11,0,14.9,3.9,14.9,14.9c0,6.6,0,13.2,0,21.1c25.4-18.3,49.5-35.8,74.4-53.8
		C473.2,129.3,448.9,111.8,423.6,93.5z"/>
</g>
</svg>
