<?xml version="1.0" encoding="utf-8"?>
<!-- Generator: Adobe Illustrator 24.2.1, SVG Export Plug-In . SVG Version: 6.00 Build 0)  -->
<svg version="1.1" id="Layer_1" xmlns="http://www.w3.org/2000/svg" xmlns:xlink="http://www.w3.org/1999/xlink" x="0px" y="0px"
	 viewBox="0 0 512 512" style="enable-background:new 0 0 512 512;" xml:space="preserve">
<g>
	<path d="M74,512c-1.5-0.6-3-1.3-4.5-1.9c-10.8-4.7-16.7-12.9-17.5-24.6c-0.2-3.7-0.2-7.3,0-11c0.2-4.3,3.3-7.3,7.3-7.4
		c4.1-0.1,7.4,3,7.6,7.6c0.2,3.2,0,6.3,0.1,9.5c0.3,7.7,5.3,12.6,13,12.9c1.2,0,2.3,0,3.5,0c115,0,230,0,345,0
		c12.3,0,16.5-4.2,16.5-16.4c0-78.5,0-157,0-235.5c0-1.8,0-3.6,0-5.9c-1.9-0.1-3.5-0.2-5.1-0.2c-38.8,0-77.7,0-116.5-0.1
		c-3.1,0-5,0.7-6.6,3.7c-3.9,7.3-10.5,11.2-18.8,11.3c-28,0.2-56,0.2-84,0c-8.7-0.1-15.1-4.5-19.5-11.9c-0.8-1.4-2.9-2.8-4.4-2.8
		c-40.5-0.1-81-0.1-121.5-0.1c-0.3,0-0.6,0.1-1.7,0.3c0,1.8,0,3.7,0,5.6c0,63.5,0,127,0,190.5c0,1.7,0.2,3.4-0.1,5
		c-0.8,4.1-3.4,6.6-7.6,6.5c-4-0.1-6.4-2.5-7.1-6.4c-0.3-1.8-0.1-3.7-0.1-5.5c0-133.3,0.2-266.6-0.2-399.9c0-17.3,5.3-29.3,22.2-35
		c121.3,0,242.7,0,364,0c16.9,5.7,22.2,17.8,22.2,35c-0.3,148.1-0.2,296.3-0.2,444.4c0,2,0.1,4,0,6c-0.9,11.7-6.7,19.9-17.5,24.6
		c-1.5,0.6-3,1.3-4.5,1.9C316.7,512,195.3,512,74,512z M67,55c2.7,0,4.9,0,7,0c113.1,0,226.3,0,339.4,0c7.8,0,11.3,2.3,11.5,7.3
		c0.2,5.2-3.6,7.7-11.5,7.7c-113.3,0-226.6,0-339.9,0c-2.1,0-4.2,0-6.3,0c0,51.7,0,102.6,0,153.8c1,0.1,1.8,0.2,2.6,0.2
		c40,0,80,0,120-0.1c1.6,0,3.9-1.5,4.8-3c4.4-7.2,10.6-11.7,19.1-11.8c28.2-0.2,56.3-0.2,84.5,0c8.3,0.1,14.8,4,18.7,11.4
		c1.6,3.1,3.6,3.6,6.7,3.6c38.8-0.1,77.7-0.1,116.5-0.1c1.6,0,3.2,0,5,0c0-2.5,0-4.4,0-6.2c0-62.2,0-124.3,0-186.5
		c0-12.2-4.2-16.4-16.6-16.4c-115,0-230,0-344.9,0c-1.5,0-3-0.1-4.5,0c-6.7,0.5-11.7,5.2-11.9,11.9C66.8,36,67,45.2,67,55z M256,224
		c-13.2,0-26.3,0-39.5,0c-5.9,0-9.3,2.7-9.5,7.2c-0.2,4.8,3.4,7.7,9.5,7.7c26.3,0,52.6,0,78.9,0c6.1,0,9.7-3,9.5-7.7
		c-0.2-4.6-3.6-7.2-9.5-7.2C282.3,224,269.2,224,256,224z"/>
	<path d="M172.1,482c-18.8,0-37.6,0-56.5,0c-9.9,0-14.6-4.8-14.6-14.8c0-17.5,0-35,0-52.5c0-9.9,4.8-14.7,14.7-14.7
		c37.6,0,75.3,0,112.9,0c9.6,0,14.4,4.9,14.4,14.5c0,17.7,0,35.3,0,53c0,9.6-4.9,14.5-14.4,14.5C209.8,482,190.9,482,172.1,482z
		 M116.2,467c4.3,0,8.3-0.2,12.2,0.1c3.6,0.2,6.2-0.8,8.7-3.5c5.8-6.2,11.9-12.1,18-18.1c10.3-10.1,23.4-10.2,33.7-0.1
		c6.4,6.3,12.7,12.7,19.1,19c1,1,2.3,2.3,3.6,2.4c5.4,0.3,10.8,0.1,16.1,0.1c0-17.7,0-34.8,0-51.7c-37.3,0-74.2,0-111.4,0
		C116.2,432.4,116.2,449.3,116.2,467z M155.1,466.7c11.7,0,22.3,0,33.8,0c-4.4-4.3-8-8.2-11.9-11.7c-3.1-2.8-6.8-2.8-9.9,0
		C163.1,458.5,159.5,462.4,155.1,466.7z"/>
	<path d="M340,482c-18.8,0-37.6,0-56.5,0c-9.6,0-14.5-4.9-14.5-14.4c0-17.8,0-35.6,0-53.5c0-9.2,5-14.1,14.2-14.1
		c37.8,0,75.6,0,113.4,0c9.3,0,14.3,4.9,14.3,14.1c0.1,18,0.1,36,0,54c0,8.9-5,13.9-14,13.9C378,482,359,482,340,482z M284.2,467
		c4.4,0,8.3-0.2,12.3,0.1c3.6,0.3,6.2-0.9,8.7-3.5c5.8-6.2,11.9-12.1,18-18.1c10.3-10.1,23.4-10.1,33.7,0c6.4,6.3,12.7,12.7,19.1,19
		c1,1,2.3,2.3,3.6,2.3c5.4,0.3,10.8,0.1,16.2,0.1c0-17.6,0-34.6,0-51.7c-37.3,0-74.3,0-111.5,0C284.2,432.5,284.2,449.4,284.2,467z
		 M357.1,467c-4.5-4.5-8-8.1-11.6-11.6c-3-2.9-6.6-3.6-9.9-0.9c-4.2,3.6-8.1,7.6-13,12.4c11.1,0,20.5,0,30,0
		C353.6,467,354.8,467,357.1,467z"/>
	<path d="M142.3,350.4c-22.9-0.5-40.8-19.1-40.3-42.1c0.5-22.2,19.3-40.2,41.7-39.7c22.9,0.5,40.8,19.1,40.3,42.1
		C183.5,332.9,164.6,350.9,142.3,350.4z M143.2,335.4c14.4-0.1,25.9-11.8,25.8-26.2c-0.1-14.3-12-25.8-26.4-25.6
		c-14.2,0.2-25.6,11.8-25.5,26C117,323.9,128.8,335.5,143.2,335.4z"/>
	<path d="M255.8,268.6c22.6-0.1,41.1,18.1,41.2,40.7c0.1,22.6-18.1,41-40.8,41.1c-22.6,0.1-41.1-18.2-41.2-40.7
		C214.9,287.1,233.1,268.7,255.8,268.6z M255.8,283.6c-14.4,0.1-25.9,11.9-25.7,26.3c0.2,14.1,11.8,25.5,26,25.5
		c14.4,0,26-11.6,26-26C281.9,295,270.2,283.4,255.8,283.6z"/>
	<path d="M368.3,350.4c-22.9-0.5-40.8-19.1-40.3-42.1c0.5-22.2,19.3-40.2,41.6-39.7c22.9,0.5,40.8,19.1,40.3,42.1
		C409.5,332.9,390.7,350.9,368.3,350.4z M368.9,283.6c-14.4,0.1-26,11.8-25.8,26.2c0.1,14.2,11.7,25.6,25.9,25.6
		c14.4,0.1,26.1-11.5,26.1-25.9C395,295.1,383.3,283.5,368.9,283.6z"/>
	<path d="M143.4,365.6c8.1,0,16.3-0.1,24.4,0c5.3,0.1,8.3,2.7,8.5,7.1c0.2,4.6-2.9,7.7-8.4,7.8c-16.6,0.1-33.2,0.1-49.9,0
		c-5.5,0-8.6-3.1-8.5-7.7c0.1-4.5,3.2-7.2,8.9-7.2C126.8,365.5,135.1,365.6,143.4,365.6z"/>
	<path d="M256.1,365.6c8.1,0,16.3-0.1,24.4,0c5.7,0.1,8.7,2.7,8.8,7.3c0.1,4.6-3,7.6-8.5,7.7c-16.6,0.1-33.2,0.1-49.9,0
		c-5.5,0-8.5-3.2-8.3-7.8c0.2-4.4,3.2-7,8.5-7.1C239.5,365.5,247.8,365.6,256.1,365.6z"/>
	<path d="M369,365.6c8.1,0,16.3-0.1,24.4,0c5.7,0.1,8.8,2.7,8.9,7.2c0.1,4.7-3.1,7.7-9,7.7c-16.3,0.1-32.6,0.1-48.9,0
		c-5.9,0-9.1-3.1-8.9-7.8c0.2-4.5,3.3-7.1,9-7.1C352.7,365.5,360.9,365.6,369,365.6z"/>
	<path d="M258.5,169.6c15.6,0,31.3,0,46.9,0c1.8,0,3.7-0.1,5.5,0.3c3.5,0.8,6,3.4,5.3,6.8c-0.5,2.7-2.7,5.4-4.9,7.2
		c-1.4,1.1-4.2,0.7-6.3,0.7c-31,0-61.9,0-92.9,0c-0.7,0-1.3,0-2,0c-6.3-0.2-9.6-2.9-9.5-7.8c0.1-4.7,3.3-7.2,9.4-7.2
		C226.2,169.5,242.3,169.6,258.5,169.6z"/>
	<path d="M256,109.6c12,0,24,0,35.9,0c6.1,0,9.3,2.5,9.4,7.2c0.1,4.9-3.2,7.8-9.4,7.8c-24,0.1-47.9,0-71.9,0c-0.7,0-1.3,0-2-0.1
		c-4.8-0.6-7.6-3.4-7.4-7.7c0.1-4.3,3-7.1,7.9-7.1C231,109.5,243.5,109.6,256,109.6C256,109.6,256,109.6,256,109.6z"/>
	<path d="M205.8,139.6c11.6,0,23.3-0.1,34.9,0c4.6,0.1,7.4,2.9,7.6,6.9c0.2,4.3-2.5,7.3-7.3,7.8c-1.3,0.2-2.7,0.1-4,0.1
		c-5,0-10,0-15,0c-15.8,0-31.6,0-47.4,0c-1.3,0-2.7,0-4-0.1c-5.2-0.4-8.1-3.2-8.1-7.6c0-4.4,3-7.3,8.3-7.3
		C182.5,139.5,194.2,139.6,205.8,139.6C205.8,139.6,205.8,139.6,205.8,139.6z"/>
	<path d="M306.7,139.6c11.1,0,22.3,0,33.4,0c6,0,9.2,2.7,9.2,7.4c0,4.7-3.2,7.5-9.1,7.6c-22.5,0.1-44.9,0.1-67.4,0
		c-6,0-9.2-2.8-9.2-7.5c0-4.7,3.1-7.4,9.1-7.5C284.1,139.5,295.4,139.6,306.7,139.6z"/>
	<path d="M159.9,124.6c-8,0-16,0-23.9,0c-1.5,0-3,0-4.5-0.2c-4.5-0.6-7-3.5-6.9-7.7c0.1-4.1,2.9-7,7.5-7c18.6-0.1,37.2-0.1,55.9,0
		c4.5,0,7.3,3,7.4,7.1c0.1,4.3-2.6,7.5-7.5,7.6C178.6,124.7,169.3,124.5,159.9,124.6C159.9,124.5,159.9,124.5,159.9,124.6z"/>
	<path d="M352,109.6c8.8,0,17.6-0.1,26.4,0c5.7,0,8.8,2.6,8.9,7.2c0.1,4.7-3,7.7-8.9,7.8c-17.6,0.1-35.2,0.1-52.9,0
		c-5.9,0-9.1-3-8.9-7.8c0.1-4.5,3.2-7.1,8.9-7.2C334.4,109.5,343.2,109.6,352,109.6z"/>
	<path d="M86.4,45c-5.4-0.1-9.7-4.5-9.8-10c0-5.7,4.6-10.2,10.2-10c5.4,0.2,9.6,4.7,9.5,10.2C96.2,40.7,91.8,45,86.4,45z"/>
	<path d="M121.5,45c-5.4,0-9.8-4.4-9.9-9.8c-0.1-5.7,4.5-10.2,10.1-10.1c5.4,0.1,9.7,4.6,9.6,10.1C131.3,40.6,126.9,45,121.5,45z"/>
	<path d="M166.4,34.9c0.1,5.5-4.2,9.9-9.6,10.1c-5.6,0.1-10.2-4.4-10.1-10.1c0.1-5.5,4.5-9.8,9.9-9.8
		C161.9,25,166.3,29.4,166.4,34.9z"/>
</g>
</svg>
