<?xml version="1.0" encoding="utf-8"?>
<!-- Generator: Adobe Illustrator 24.2.1, SVG Export Plug-In . SVG Version: 6.00 Build 0)  -->
<svg version="1.1" id="Layer_1" xmlns="http://www.w3.org/2000/svg" xmlns:xlink="http://www.w3.org/1999/xlink" x="0px" y="0px"
	 viewBox="0 0 512 512" style="enable-background:new 0 0 512 512;" xml:space="preserve">
<g>
	<path d="M165.2,499.1C82.3,499,19.1,441.3,12.6,365.9c-3.8-44.5,9.8-83.3,40.8-115.3c27.6-28.5,56-56.3,84.1-84.3
		c8.6-8.5,20.9-8.7,29.5-0.3c12.7,12.4,25.2,24.9,37.6,37.6c8.9,9.1,8.5,20.9-0.8,30.2c-26.4,26.5-52.9,52.8-79.3,79.3
		c-19.2,19.4-21.3,48.4-5.2,68.9c19.9,25.3,55.7,26.9,79.6,3.3c20.1-19.8,39.9-39.9,59.9-59.8c6.3-6.3,12.5-12.6,18.8-18.8
		c9-8.9,20.8-9.1,29.8-0.3c12.7,12.4,25.2,24.9,37.6,37.6c8.7,8.8,8.7,20.7,0,29.4c-28.9,29-57.5,58.4-87.2,86.8
		C230.2,486.5,196.3,498.7,165.2,499.1z M114.6,204.8c-17.6,17.6-35.5,35-52.8,52.9c-30.9,32.2-44,70.8-37.1,114.9
		c7.9,50.9,36.5,87.1,84.4,105.7c48.6,18.9,95,11.7,135.1-21.8c22-18.3,41-40.1,61.3-60.3c0.2-0.2,0.1-0.6,0.1-0.5
		c-17-17-33.8-33.8-51.3-51.3c-0.9,1.3-1.8,2.9-3.1,4.2c-15,15.1-30,30.3-45.2,45.2c-19.8,19.4-48.3,24.6-72.7,13.5
		C94.8,389.6,85,338,114.6,307.1c15.5-16.2,31.7-31.9,47.6-47.7c1.2-1.2,3.1-1.8,4.4-2.6C148.5,238.7,131.7,221.9,114.6,204.8z
		 M123.7,195.5c17.3,17.3,34.1,34.2,51,51.1c7.2-7.1,14.9-14.5,22.2-22.1c4-4.2,3.9-8.9-0.3-13.1c-12.4-12.6-24.9-25.1-37.5-37.5
		c-4.2-4.1-9.3-4.1-13.5,0C138.1,181.1,130.7,188.5,123.7,195.5z M314.7,387.5c7.5-7.4,15.2-14.9,22.7-22.7c3.7-3.8,3.6-9-0.2-12.8
		c-12.5-12.7-25.1-25.4-37.9-37.9c-4.3-4.2-9.1-4-13.5,0.3c-6.4,6.1-12.5,12.5-18.8,18.7c-1.2,1.2-2.4,2.5-3.2,3.4
		C281,353.7,297.8,370.5,314.7,387.5z"/>
	<path d="M333.7,99.1c-0.3,47.5-39.1,86.1-86.3,85.8c-47.5-0.4-85.7-39-85.6-86.6c0.1-47.2,39.1-85.7,86.7-85.4
		C295.5,13.1,333.9,52,333.7,99.1z M223.9,106.6c-20.7-18.8-16.6-44-3.8-57.1c14.2-14.5,37.2-15.7,52.6-2.5
		c17.6,15.1,17.4,36.5-0.3,58.9c7.3,3.7,15.1,6.8,22,11.3c6.9,4.5,13,10.4,19.3,15.6c17.4-28.9,8.6-70.7-19.9-92.9
		C264,16.7,222,19.1,195.1,45.7c-27.7,27.3-26.3,67.1-12.8,87.8C193.5,120.6,207.2,111.8,223.9,106.6z M306.7,144
		c-29.4-40.2-90.5-38.5-117.9,0C216.9,183,277.7,183.7,306.7,144z M274.8,76.2c0-15.2-11.9-27.1-27.1-27.1
		c-15,0-27.2,12.2-27.2,27.2c0.1,14.6,12.3,26.9,27,27C262.4,103.5,274.8,91.2,274.8,76.2z"/>
	<path d="M425.1,351.5c-41.5-0.1-74.8-33.7-74.6-75.4c0.2-40.7,34-74.2,75-74.1c41,0.1,74.6,33.7,74.6,74.5
		C500,318.2,466.6,351.6,425.1,351.5z M481.6,305.2c12.9-22.3,9.4-56.6-15.8-77.4c-25.4-21-61.6-19.2-85.4,4.1
		c-19.3,18.9-24.8,55.3-10.8,73.3c9.2-10.4,20.6-17.5,33.7-21.9c-15-18.5-15.2-37-0.8-50.6c12.8-12,32.4-12.2,45.6-0.5
		c14.5,13,14.5,31.8-0.2,51.1C461,287.7,472.3,294.9,481.6,305.2z M375.4,315.6c26.3,35,78.8,30.8,99.4-0.2
		C450.3,283.1,400.3,283.1,375.4,315.6z M425.1,279.8c12.6,0.1,22.6-9.7,22.7-22.1c0.2-12.6-10-22.9-22.6-22.9
		c-12.3,0.1-22.6,10.3-22.6,22.5C402.7,269.8,412.6,279.7,425.1,279.8z"/>
	<path d="M419.1,172.3c-34.1-0.1-61.7-28-61.7-62.3c0.1-33.6,28.3-61.5,62-61.5c34,0,62,28.2,61.9,62.1
		C481.1,144.9,453.4,172.4,419.1,172.3z M463.6,134.4c12.2-19.4,6.9-47.3-12.2-63.1c-19.2-15.9-47.8-15.1-66.2,1.9
		c-17.6,16.1-22,44.1-10.1,61.3c7.8-4.9,15.6-9.8,23.4-14.6c-10.7-15.5-10.2-30,1.5-40.8c10.3-9.6,26.5-10.1,37.4-1.1
		c12.6,10.4,13.5,24.8,2.9,42.1C448,124.7,455.7,129.4,463.6,134.4z M382.6,145c21,23.5,58.1,19.5,73.5-0.3
		C438.4,123.1,399.3,123.2,382.6,145z M419.2,117.2c9.5,0.1,17.2-7.4,17.4-16.9c0.2-9.6-7.5-17.6-17.2-17.6
		c-9.5-0.1-17.3,7.4-17.5,16.9C401.8,109,409.6,117.1,419.2,117.2z"/>
	<path d="M103,110.2c-3.3,6.4-6.2,11.9-9.1,17.4c-3.2,5.9-7,6.5-11.4,1.6c-7.5-8.5-14.9-17-22.4-25.5c-2.6-3-3.5-6.3-0.2-9
		c3.3-2.8,6.3-1.3,8.9,1.7c5.8,6.7,11.6,13.3,18,20.6c3.1-5.9,5.9-11.3,8.8-16.7c3.9-7.4,7.4-7.8,12.8-1.3
		c7.3,8.7,14.5,17.4,21.7,26.1c3.3,3.9,3.4,7.2,0.4,9.4c-3.9,2.9-6.6,0.7-9.2-2.3C115.4,124.9,109.4,117.8,103,110.2z"/>
	<path d="M383.2,408.5c6.8-1.9,12.9-3.7,19.1-5.4c6.8-1.9,9.8,0.6,8.9,7.6c-1.3,10.9-2.6,21.8-3.9,32.7c-0.1,1-0.3,1.9-0.5,2.9
		c-0.5,3.9-2.5,6.2-6.5,5.6c-4.2-0.6-5-3.7-4.6-7.3c1-8.6,2-17.3,3.1-25.9c0.1-0.8,0.1-1.6,0.2-3.1c-6.4,1.8-12.3,3.4-18.2,5
		c-7.4,2-10.2-0.5-9.4-8c1-9.6,1.8-19.3,2.7-28.9c0.2-1.6,0.4-3.3,0.6-4.9c0.5-3.6,2.6-5.9,6.3-5.4c3.7,0.5,5.1,3.2,4.8,6.8
		c-0.7,8.3-1.5,16.7-2.3,25C383.4,406,383.3,406.8,383.2,408.5z"/>
	<path d="M269.4,254.9c-7,0-13.2,0-19.4,0c-7-0.1-9.2-3.2-6.7-9.7c3.9-10.2,7.9-20.5,11.8-30.7c1.4-3.6,3.3-6.7,7.9-5.3
		c3.6,1.1,4.5,4.5,2.6,9.5c-3.1,8.1-6.2,16.1-9.7,25.1c7,0,13.3,0,19.6,0c7.5,0.1,9.6,3.1,6.8,9.9c-4.5,10.9-8.9,21.8-13.8,32.6
		c-0.9,2-3.5,3.8-5.6,4.6c-1.2,0.4-4.1-1.4-4.5-2.7c-0.7-2.1-0.5-4.8,0.3-6.9C261.9,272.7,265.5,264.3,269.4,254.9z"/>
</g>
</svg>
