<?xml version="1.0" encoding="utf-8"?>
<!-- Generator: Adobe Illustrator 24.2.1, SVG Export Plug-In . SVG Version: 6.00 Build 0)  -->
<svg version="1.1" id="Layer_1" xmlns="http://www.w3.org/2000/svg" xmlns:xlink="http://www.w3.org/1999/xlink" x="0px" y="0px"
	 viewBox="0 0 512 512" style="enable-background:new 0 0 512 512;" xml:space="preserve">
<g>
	<path d="M194,0c5.2,3.2,11.3,5.4,15.2,9.7c3.9,4.3,5.6,10.6,8.7,16.8c16.2,2.1,25.1,12.3,25.8,30.4c9,0,17.8,0,26.5,0
		c1.7,0,3.3,0,5,0c5.1,0.1,8.4,2.9,8.5,7.2c0.2,4.4-3.3,7.7-8.6,7.8c-8.5,0.1-17,0-25.5,0c-1.8,0-3.6,0-5.9,0c-0.3,6-2,11.3,4,16.2
		c3.5,2.9,5.9,8.8,6.1,13.5c0.7,18.8,0.5,37.6,0.2,56.5c-0.2,11.6-9.6,20.6-21.3,21c-5.2,0.2-10.3-0.1-15.5,0.2
		c-1.6,0.1-3.3,1.5-4.6,2.6c-3.3,3-5.9,6.9-9.6,9.1c-7.5,4.5-9.5,9.1-5.8,18.2c8.5-3.9,15.4,0.2,22.5,4.6c5,3.1,10.6,5.5,16.2,7.4
		c44.9,15.2,74,55.9,74.6,104.7c0.1,6.8,0,13.6,0,20.9c42.8,0,85.4,0,128.8,0c0-2,0-4,0-6.1c0-39,0-78,0-117
		c0-7.7,2.4-11.3,7.4-11.5c5.1-0.1,7.6,3.7,7.6,11.6c0,50.7-0.4,101.3,0.2,151.9c0.3,22.8-15.8,39.3-39,39
		c-45.5-0.5-91-0.1-136.5-0.1c-2,0-3.9,0-6.4,0c3.2,12.4,6.2,24.1,9.3,35.9c8.1,0.4,16.1,0.3,24,1.4c19.6,2.8,35,20.1,36.1,39.7
		c0.6,10.8-2.3,15.2-13.1,20.3c-68,0-136,0-204,0c-8.5-3.8-13.5-9.7-12.9-19.7c1.3-20.3,16.6-37.4,36.6-40.4
		c5.7-0.8,11.6-1.1,17.4-0.7c5.1,0.3,6.9-1.6,7.9-6.3c1.8-8.6,4.3-17.1,6.5-25.6c0.3-1.3,0.4-2.8,0.7-4.6c-2.6,0-4.5,0-6.5,0
		c-45.6,0-91.3,0-136.9,0c-15.8,0-27.6-6.5-34.6-20.9C1.8,391,1,388,0,385c0-99.7,0-199.3,0-299c0.3-0.7,0.8-1.4,1-2.2
		C5.6,67,18.6,57,36.1,56.9c6.5,0,13,0,19.5,0c3.7,0,7.5,0,11.6,0c0-2.6-0.1-4.4,0-6.2c1.2-22.2,15.7-41.1,36.8-48c3-1,6-1.8,9-2.6
		C140,0,167,0,194,0z M155.3,254.7c-5.1,4.3-9.9,8.3-14.8,12.3c-9,7.4-17.5,7.1-25.7-1.1c-9-8.9-18.1-17.7-26.8-27
		c-3.5-3.7-6.5-4.4-11.2-2.6c-45.4,18-66.9,58.3-61.2,110.5c13.2,0,26.4,0,40.2,0c0-4.6,0-8.9,0-13.2c0.1-6.2,2.8-9.7,7.6-9.6
		c4.7,0.1,7.4,3.6,7.4,9.9c0,4.3,0,8.6,0,13c56.7,0,112.8,0,169.3,0c0-4.9-0.1-9.6,0-14.2c0.1-5.4,3-8.8,7.5-8.7
		c4.5,0,7.4,3.4,7.5,8.8c0.1,4.6,0,9.3,0,14.1c13.7,0,26.9,0,40.6,0c0-7.8,0.2-15.3,0-22.7c-1.1-41-25.8-75.3-63.4-88.3
		c-3.4-1.2-5.7-0.9-8.3,1.8c-9.4,9.7-19,19.2-28.6,28.7c-7.6,7.5-16.4,7.9-24.6,1.1C165.6,263.3,160.6,259,155.3,254.7z
		 M438.9,362.6c-141.2,0-282.4,0-423.8,0c0,6.6-0.5,13,0.1,19.2c1,11.1,10.1,17.9,23.1,17.9c125.9,0,251.9,0,377.8,0
		c2.6,0,5.4-0.1,7.9-0.8c7.8-2,13.3-7,14.5-14.8C439.7,377.2,438.9,370,438.9,362.6z M67.1,71.9c-10.3,0-19.8,0-29.3,0
		C22.9,71.9,15,79.8,15,94.7c0,56.1,0,112.3,0,168.4c0,1.6,0,3.2,0,6.1c1.7-2.4,2.6-3.7,3.5-5.1c13.9-20.4,32.5-34.4,55.7-42.6
		c6.5-2.3,12.9-5.4,18.7-9c6.5-4,12.8-6.2,20.2-3.3c3.6-7,2.3-13.1-3.2-17.4c-10-7.7-17.7-17.2-22.1-29c-2-5.3-3.3-10.7-5-16.4
		c-1.1-0.1-2.4-0.2-3.7-0.2c-14.6-0.2-22.9-8.5-23-23c0-6.3,0-12.7,0-19c0-7.4,2.6-13.6,8.6-18.3c1-0.8,2-2.2,2.2-3.5
		C67.3,79,67.1,75.7,67.1,71.9z M212.9,115.6c-10.2-2.5-13.8-7.1-13.8-17.1c0-6.2-0.4-12.4,0.1-18.5c0.9-13.1-9.5-18.2-20.1-15.3
		c-5.4,1.5-11,2.6-16.6,3.3c-10.5,1.2-20.9-0.3-31.1-3.1c-12.4-3.4-19.9,2.4-20,15.1c0,5.2,0,10.3,0,15.5c0,13.4-1.3,15.5-13.3,20.5
		c-1.7,23.8-0.8,46.7,20,63.2c12.9,10.2,27.5,14.6,45,12.7c-1.9-1.4-3-2.2-4-3c-6.9-5.7-9.6-13.2-7.7-21.9c2-8.9,7.8-15.8,16.8-16.3
		c13.8-0.8,28.3-4.4,41.1,5.3C214.7,142.8,212.6,129.2,212.9,115.6z M227.5,497c31.3,0,62.6,0,93.9,0c5.8,0,6.2-0.5,5.5-6.3
		c-1.6-13.7-13.7-24.5-28.4-24.5c-47.6-0.2-95.3-0.2-142.9,0c-14.5,0.1-25.6,10.1-28.2,24.2c-1.1,5.8-0.4,6.6,5.6,6.6
		C164.6,497,196.1,497,227.5,497z M96.4,99.9c0-7.5,0-14.5,0-21.4c0.1-10.9,4.2-19.8,13.8-25.5c8.1-4.8,16.6-4.5,25.6-2.7
		c8.1,1.6,16.4,2.7,24.6,2.7c5.9,0,11.7-2.1,17.6-3.3c19.7-4.1,35.8,8.7,36,28.8c0.1,7,0,14,0,21.4c2.6-0.8,4.7-1.6,6.9-2.1
		c5.6-1.2,7.8-4.2,7.5-10.2c-0.5-10.5-0.1-21-0.2-31.5c-0.1-9.4-3.6-13.2-12.9-14.4c-9.1-1.2-13.3-5.5-14.4-14.4
		c-0.9-7.8-5.4-12.1-13.1-12.1c-22.8-0.1-45.7-0.2-68.5,0c-18.3,0.2-34.4,13.5-36.4,31.6c-1.6,14.8-0.8,29.9-0.8,44.9
		c0,1.5,1.7,3.7,3.2,4.4C88.6,97.6,92.2,98.5,96.4,99.9z M266.6,450.9c-3-11.5-5.8-22.8-8.9-34c-0.3-0.9-2.1-2-3.3-2
		c-18.1-0.1-36.3-0.1-54.5,0c-1.2,0-3.1,1.4-3.4,2.5c-3.1,11-5.9,22.1-8.8,33.5C214.2,450.9,240.1,450.9,266.6,450.9z M130.6,203.1
		c-1.3,4.9-2.5,9.7-3.8,14.7c9.4,6,19,12,28.5,18.1c9.8-6.2,19.3-12.2,28.4-18c-1.3-5.1-2.4-9.8-3.6-14.7
		C163.7,208.8,147.1,208.9,130.6,203.1z M168,245.7c4.5,3.8,8.6,7.4,13,10.6c0.7,0.6,3,0.2,3.8-0.6c9.5-9.2,18.8-18.6,29.5-29.3
		c-4.8-1.1-9.2-3.6-11.5-2.4C191,230.6,179.9,238.1,168,245.7z M97.5,227.8c9.6,9.5,18.9,18.8,28.4,27.9c0.8,0.8,3.3,1,4.2,0.4
		c4.2-3.1,8.2-6.7,12.6-10.3c-10.4-6.6-20.2-12.8-30.1-19.1C105.5,222.1,105.5,222.1,97.5,227.8z M183.2,165c-3.5,0-7-0.1-10.5,0
		c-4.1,0.2-6.6,2.3-6.8,6.4c-0.2,4.2,2.2,6.8,6.2,7c7.3,0.3,14.6,0.3,21.9,0c4-0.2,6.3-2.9,6-7.1c-0.3-4.1-2.8-6.2-6.9-6.3
		C189.8,164.9,186.5,165,183.2,165z M71.9,105.1c-0.4,0.8-0.6,1.1-0.6,1.4c0,5.2-0.1,10.3-0.1,15.5c0,8.2,3,10.4,11.6,8.3
		c0-2.2-0.1-4.5,0-6.8c0.5-7.1,0.6-13.9-8.2-16.3C73.7,106.8,73,105.9,71.9,105.1z M228.2,111.5c0,6.2,0,12.7,0,19.1
		c7.2,0.8,10.5-0.3,10.7-4.4c0.4-6.9,0.1-13.8,0.1-20.9C235.2,107.6,231.7,109.5,228.2,111.5z M222.9,163.6
		c15.4,2.3,18.1-1.4,15.5-17.9c-3.6,0.2-7.3,0.4-10.8,0.5C226,152.2,224.5,157.9,222.9,163.6z"/>
	<path d="M512,168c-0.4,0.9-0.9,1.7-1.2,2.6c-4.4,13.4-15.1,21.4-29.3,21.4c-29.8,0.1-59.7,0.1-89.5-0.1c-4.7,0-7.7,1.6-10.5,5.2
		c-11.4,14.8-23.1,29.3-34.6,44c-4.4,5.6-8.6,7.3-13.7,5.6c-5-1.7-7.3-5.7-7.3-12.8c0-14.2,0-28.3,0-42.6c-11-4-18.7-11.1-21.3-22.7
		c-0.6-2.6-0.7-5.3-0.7-7.9c0-41.8-0.1-83.7,0-125.5c0-18.9,12.3-31.3,31.3-31.4c48.3-0.1,96.7-0.1,145,0c16.2,0,26,7.4,31,23
		c0.1,0.4,0.5,0.8,0.8,1.2C512,74.7,512,121.3,512,168z M340.9,224.5c2.3-2.8,3.6-4.5,4.9-6.1c8.4-10.6,16.8-21.1,25-31.8
		c5.1-6.6,11.4-9.6,19.7-9.6c30.2,0.2,60.3,0.1,90.5,0c9.6,0,15.8-6.1,15.8-15.5c0.1-42.5,0.1-85,0-127.5c0-9-6.1-15.2-15-15.2
		c-49.3-0.1-98.6-0.1-148,0c-9,0-15,6.2-15,15.2c-0.1,42.5-0.1,85,0,127.5c0,8,4.2,13.2,11.8,15.3c7.7,2.1,10.1,5.2,10.1,13.1
		C341,200.9,340.9,211.9,340.9,224.5z"/>
	<path d="M234.8,312.3c-5.7,0-11.3,0.3-17-0.1c-9.7-0.6-16.6-8-16.9-17.7c-0.1-2.3-0.1-4.7,0-7c0.3-10.3,7.6-18.1,17.9-18.4
		c10.7-0.3,21.3-0.2,32,0c8.9,0.2,16.1,6.2,17.5,14.9c0.7,4.5,0.7,9.4-0.1,13.9c-1.5,8.3-7.9,13.8-16.3,14.3
		C246.2,312.6,240.5,312.3,234.8,312.3z M235.1,284c-4.8,0-9.7,0-14.5,0c-4.7-0.1-4.8,3-4.7,6.4c0.1,3.4-0.4,7,4.7,7
		c9.5,0,19,0,28.5,0c5.4,0,4.7-3.9,4.9-7.4c0.1-3.8-1-6.1-5.3-6C244.1,284.1,239.6,284,235.1,284z"/>
	<path d="M406.6,111.6c0-12.5-0.1-24.9,0.1-37.4c0.1-4.7,3.3-7.8,7.4-7.8c4.1,0,7.1,3,7.5,7.7c0.1,1.3,0.1,2.7,0.1,4
		c0,22.6,0,45.2,0,67.8c0,1,0,2,0,3c-0.3,5.5-3.1,8.6-7.7,8.5c-4.3-0.1-7.2-3.2-7.2-8.4C406.5,136.5,406.5,124.1,406.6,111.6
		C406.5,111.6,406.6,111.6,406.6,111.6z"/>
	<path d="M421.1,47.2c0.1,4-2.8,7-6.8,7.2c-4.2,0.2-7.4-2.9-7.4-7c0-4.1,3.3-7.4,7.3-7.3C418,40.2,421.1,43.3,421.1,47.2z"/>
</g>
</svg>
