<?xml version="1.0" encoding="utf-8"?>
<!-- Generator: Adobe Illustrator 24.2.1, SVG Export Plug-In . SVG Version: 6.00 Build 0)  -->
<svg version="1.1" id="Layer_1" xmlns="http://www.w3.org/2000/svg" xmlns:xlink="http://www.w3.org/1999/xlink" x="0px" y="0px"
	 viewBox="0 0 512 512" style="enable-background:new 0 0 512 512;" xml:space="preserve">
<g>
	<path d="M218.1,421.1c0-22.6,0-44.5,0-67.2c-2,0-3.9,0-5.8,0c-50.2,0-100.3,0-150.5,0c-21.4,0-32.7-11.3-32.7-32.7
		c0-83.2,0-166.4,0-249.6c0-20.5,11.3-31.9,31.8-31.9c130.2,0,260.4,0,390.6,0c20.2,0,31.6,11.5,31.7,31.6c0,83.7,0,167.4,0,251.1
		c0,19.7-11.7,31.5-31.4,31.5c-50.5,0-101,0-151.5,0c-2,0-3.9,0-6.2,0c0,22.5,0,44.4,0,67c11.9-0.5,23.1,1.4,32.1,10.2
		c8.8,8.7,11.6,19.5,10.9,32c6.3,0,12.3,0,18.2,0c3.4,0,6.8,0.4,6.7,4.7c0,4.1-3.3,4.4-6.5,4.4c-66.3,0-132.7,0-199,0
		c-3.3,0-6.4-0.5-6.3-4.5c0.1-4,3.1-4.6,6.4-4.5c6,0,11.9,0,18.5,0c-0.5-12.4,2.1-23.4,11.1-32.1C195,422.5,206,420.2,218.1,421.1z
		 M38.3,120.1c0,56.1,0,111.7,0,167.4c145.3,0,290.3,0,435.3,0c0-55.9,0-111.5,0-167.4c-2.4,0-4.4,0-6.3,0c-47.5,0-95,0-142.5,0
		c-22.2,0-44.3-0.1-66.5,0.1c-4.4,0-6.8-1.5-8.1-5.6c-1.4-4.4-3.4-8.7-4.9-13.1c-0.9-2.6-2.1-3.6-5-3.6c-29.7,0.1-59.3,0.1-89,0
		c-2.8,0-4.2,0.8-5.1,3.4c-1.5,4.4-3.5,8.6-4.9,13.1c-1.3,4.5-4,5.8-8.5,5.7c-29.7-0.2-59.3-0.1-89-0.1
		C42.1,120.1,40.3,120.1,38.3,120.1z M473.9,297.3c-145.6,0-290.6,0-435.9,0c0,10-0.4,19.7,0.1,29.3c0.5,11.4,9.4,18.2,22.6,18.2
		c130.1,0,260.3,0,390.4,0c1.5,0,3,0,4.5-0.1c10.1-1,17.7-8.3,18.1-18.1C474.3,317,473.9,307.3,473.9,297.3z M327.4,463
		c2.4-17.8-8.6-32.6-24.9-32.8c-31-0.4-62-0.4-93,0c-16.6,0.2-28.6,16.5-24.8,32.8C232.2,463,279.7,463,327.4,463z M82.4,84.4
		c4.5,0,9,0.4,13.4-0.2c1.9-0.3,4.5-2.4,4.9-4.1c0.7-3.2-2-4.6-5-4.6c-9.1-0.1-18.3-0.2-27.4,0.2c-1.7,0.1-3.3,2.8-4.9,4.3
		c1.7,1.5,3.2,3.9,5,4.2C73,84.7,77.7,84.3,82.4,84.4z M425.6,84.3c2.8,0,5.8,0.5,8.4-0.2c1.8-0.5,3.3-2.6,4.9-3.9
		c-1.6-1.6-3-4.4-4.7-4.6c-5.6-0.6-11.3-0.5-16.9,0c-1.6,0.2-3.9,2.5-4.3,4.2c-0.7,3,1.8,4.4,4.6,4.4
		C420.3,84.4,423,84.3,425.6,84.3z M382.4,84.3C382.4,84.3,382.4,84.3,382.4,84.3c2.8,0,5.8,0.5,8.4-0.2c1.8-0.5,4.2-2.7,4.2-4.2
		c0-1.5-2.5-4.2-4-4.3c-5.8-0.5-11.6-0.5-17.4,0c-1.6,0.1-2.9,2.9-4.3,4.4c1.6,1.4,2.9,3.6,4.7,4.1
		C376.6,84.8,379.6,84.3,382.4,84.3z M338.8,84.3c2.8,0,5.8,0.5,8.4-0.2c1.8-0.5,3.2-2.6,4.8-4c-1.5-1.6-3-4.4-4.7-4.5
		c-5.4-0.6-11-0.6-16.4,0c-1.8,0.2-3.3,2.8-5,4.2c1.6,1.5,3,3.7,4.9,4.3C333.4,84.9,336.2,84.3,338.8,84.3z"/>
	<path d="M304.5,171.1c-30.5,0-61,0-91.4,0c-1.5,0-3.3,0.5-4.4-0.2c-1.7-0.9-3.9-2.6-4-4c0-1.5,2-3.3,3.6-4.5
		c0.7-0.6,2.2-0.2,3.4-0.2c61.8,0,123.6,0,185.4,0c1.3,0,3.1-0.4,3.9,0.3c1.5,1.2,3.2,3.1,3.2,4.8c0,1.2-2.2,2.9-3.7,3.7
		c-1.2,0.6-2.9,0.2-4.4,0.2C365.5,171.1,335,171.1,304.5,171.1z"/>
	<path d="M299.5,208.2c-28.8,0-57.6,0-86.4,0c-1.5,0-3.3,0.4-4.4-0.2c-1.7-0.9-3.9-2.6-4-4c0-1.5,2-3.4,3.6-4.5
		c1.1-0.7,2.9-0.3,4.4-0.3c58.1,0,116.2,0,174.4,0c1.5,0,3.4-0.4,4.4,0.3c1.5,1.1,3.5,3,3.5,4.5c-0.1,1.4-2.3,3.1-4,4
		c-1.2,0.6-2.9,0.2-4.4,0.2C357.5,208.2,328.5,208.2,299.5,208.2z"/>
	<path d="M292.5,242.7c-26.5,0-53,0-79.4,0c-3.6,0-8.4,0.8-8.5-4.4c-0.1-5.8,5-4.6,8.6-4.6c53,0,105.9,0,158.9,0
		c3.6,0,8.8-1.2,8.7,4.5c-0.1,5.5-5.2,4.5-8.9,4.5C345.4,242.7,318.9,242.7,292.5,242.7z"/>
	<path d="M135.4,146.1c-2.4,11.1-4.5,21-6.7,30.9c-2.6,12.2-5.3,24.3-8,36.5c-0.2,1-0.2,2.3-0.8,2.8c-1.7,1.4-3.6,2.5-5.5,3.7
		c-1-2-3.3-4.1-3-5.9c1.8-10.1,4.2-20.1,6.4-30.2c2.7-12.3,5.4-24.7,8.1-37c0.6-2.9,2.1-5.4,5.3-4.6
		C133.1,142.7,134.3,145,135.4,146.1z"/>
	<path d="M165.5,180.7c-6.5-6.4-12.8-12.7-19.2-18.9c-2.3-2.3-3.6-5-0.7-7.2c1.4-1,5.1-0.8,6.4,0.4c7.8,7.2,15.2,14.9,22.7,22.5
		c2.4,2.4,2.3,5.1-0.1,7.5c-7.4,7.4-14.8,14.8-22.3,22.2c-2.2,2.2-4.6,2.9-7,0.6c-2.4-2.4-1.5-4.8,0.6-7c6-6,12-12,18-18
		C164.4,182.3,164.7,181.7,165.5,180.7z"/>
	<path d="M80.7,181.1c6.7,6.6,12.8,12.7,18.9,18.8c2.3,2.3,4.2,4.9,1.5,7.7c-3,3.1-5.7,1-8.1-1.4c-6.8-6.9-13.6-13.7-20.5-20.5
		c-3.4-3.3-3.2-6,0.1-9.3c7.1-6.8,13.9-13.8,20.9-20.8c2.2-2.2,4.5-3.9,7.3-1.3c2.9,2.8,1.4,5.4-0.9,7.7
		C93.6,168.3,87.4,174.5,80.7,181.1z"/>
	<path d="M436.2,171.1c-3,0-6.1,0.5-8.9-0.2c-1.7-0.4-4.2-2.6-4.1-3.7c0.2-1.7,2.2-4.6,3.6-4.7c6.4-0.5,13-0.5,19.4,0
		c1.4,0.1,3.8,3,3.6,4.2c-0.3,1.7-2.5,3.8-4.2,4.2C442.6,171.6,439.3,171.1,436.2,171.1z"/>
	<path d="M255.6,327.1c-8.5,0-17-0.1-25.5,0c-3.2,0-5.9-0.9-5.9-4.5c0-3.5,2.7-4.6,5.9-4.6c17.3,0,34.6,0,51.9,0
		c3.3,0,5.8,1.3,5.6,4.8c-0.1,3.3-2.6,4.2-5.7,4.2C273.3,327.1,264.4,327.1,255.6,327.1z"/>
</g>
</svg>
