<?xml version="1.0" encoding="utf-8"?>
<!-- Generator: Adobe Illustrator 24.2.1, SVG Export Plug-In . SVG Version: 6.00 Build 0)  -->
<svg version="1.1" id="Layer_1" xmlns="http://www.w3.org/2000/svg" xmlns:xlink="http://www.w3.org/1999/xlink" x="0px" y="0px"
	 viewBox="0 0 512 512" style="enable-background:new 0 0 512 512;" xml:space="preserve">
<g>
	<path d="M271.4,510.5c-9.9,0-19.8,0-29.8,0c-1.3-0.3-2.5-0.7-3.8-0.8c-35.5-2.4-69.1-11.5-100.1-28.9C54.2,434,8.8,362.6,2.9,267
		c-2.8-45.8,7-89.7,29.5-129.8C79,53.9,150.5,8.7,245.8,2.8c46-2.8,89.9,7.3,130.2,29.6c71.5,39.6,115.3,99.7,130.5,180.3
		c1.8,9.5,2.7,19.2,4,28.8c0,9.9,0,19.8,0,29.8c-0.3,1.4-0.7,2.8-0.8,4.3c-2.5,35.4-11.8,69-29,100.1
		c-39.5,71.5-99.5,115.4-179.9,130.8C291,508.3,281.2,509.2,271.4,510.5z M479,256.4C479,133.6,379.7,34.2,256.7,33.8
		C134,33.5,33.9,133.6,33.9,256.5C34,379.3,133.3,478.7,256.3,479C379,479.4,479.1,379.3,479,256.4z"/>
	<path d="M206.5,378.8c-24.4-72.7-48.4-144.1-72.7-216.2c6.1-0.5,11.4-1,16.8-1.5c2-0.2,4-0.3,5.9-0.7c5.2-1.1,7.9-4.3,7.6-8.8
		c-0.4-4.8-3.7-7.7-9.3-7.4c-16.5,0.7-33,1.5-49.5,2.2c-4.9,0.2-9.9,0-15.1,0c57.4-95.4,203.7-125.8,299.7-38.9
		c-5.2,1.5-10.8,2.4-15.5,4.8c-15.7,8-23,26.6-16.7,44.6c3.6,10.2,9.7,19.4,14.4,29.2c5.6,11.7,12,23.3,16.1,35.5
		c6,17.9,3.9,36.3-1.4,54.2c-9.6,32.6-19.4,65.2-29.2,97.7c-0.3,0.9-0.8,1.7-1.5,3.2c-24.1-71.6-47.9-142.6-72-214.2
		c5.8-0.5,11.1-1,16.4-1.4c2.1-0.2,4.3-0.3,6.4-0.7c5.5-1.2,7.9-4.4,7.2-9.4c-0.6-4.4-3.6-7-8.8-6.8c-8.1,0.3-16.2,1.3-24.3,1.3
		c-24-0.1-47.9-0.5-71.9-0.8c-3.5,0-6.9-0.5-10.4-0.4c-4.5,0.1-7.4,3.1-7.8,7.4c-0.4,4.4,1.8,7.8,6.4,8.5c5.9,1,11.8,1.5,17.7,1.9
		c2.8,0.2,4.4,0.9,5.5,3.8c9.5,26.6,19.3,53.1,28.8,79.6c0.6,1.5,0.6,3.6,0,5.1c-13.8,41.7-27.7,83.3-41.6,125
		C207.7,376.4,207.3,377.1,206.5,378.8z"/>
	<path d="M200,448.2c19.8-57.7,39.7-115.3,59.9-174.2c21.1,57.7,41.7,114.3,62.4,170.9C290.2,458.1,239.6,461.2,200,448.2z"/>
	<path d="M73.9,175.6c31.7,86.9,63.2,173.3,95,260.3C70.4,389.5,30.2,269.1,73.9,175.6z"/>
	<path d="M432.4,161.9c48.6,86.8,23.5,209.2-74.9,267.1c0.6-2.1,1-3.5,1.5-4.9c21.7-62.7,43.4-125.4,65.2-188
		C431.9,213.7,434.7,189.2,432.4,161.9z"/>
</g>
</svg>
